<?xml version="1.0" encoding="utf-8"?>
<!-- Generator: Adobe Illustrator 16.0.4, SVG Export Plug-In . SVG Version: 6.00 Build 0)  -->
<!DOCTYPE svg PUBLIC "-//W3C//DTD SVG 1.1//EN" "http://www.w3.org/Graphics/SVG/1.1/DTD/svg11.dtd">
<svg version="1.1" id="Layer_1" xmlns="http://www.w3.org/2000/svg" xmlns:xlink="http://www.w3.org/1999/xlink" x="0px" y="0px"
	 width="300.752px" height="88.82px" viewBox="0 0 300.752 88.82" enable-background="new 0 0 300.752 88.82" xml:space="preserve">
<g>
	<rect x="144.881" y="15.228" fill="#0AB042" width="14.324" height="54.432"/>
	<path fill="#0AB042" d="M237.302,19.404c-4.878-3.112-10.217-4.672-16.016-4.672c-2.899,0.136-5.703,0.576-8.403,1.322
		c-2.703,0.745-5.04,1.997-7.02,3.756c-2.371-2.032-5.011-3.383-7.907-4.064c-2.9-0.673-5.866-1.014-8.898-1.014
		c-5.667,0.272-10.842,1.966-15.517,5.078c-4.683,3.12-7.021,9.28-7.021,18.491V70h13.838V35.457c0-3.252,0.924-5.621,2.771-7.111
		c1.844-1.49,3.952-2.237,6.326-2.237c2.373,0,4.514,0.747,6.426,2.237c1.909,1.49,2.867,3.859,2.867,7.111V70h13.641V35.457
		c0-3.252,0.954-5.621,2.868-7.111c1.907-1.49,4.052-2.237,6.426-2.237c2.371,0,4.514,0.747,6.426,2.237
		c1.907,1.49,2.865,3.859,2.865,7.111V70h6.723h6.92V38.302C244.617,28.822,242.175,22.522,237.302,19.404z"/>
	<path fill="#0AB042" d="M294.203,21.913c-4.501-4.787-10.846-7.181-19.028-7.181c-7.777,0-13.85,2.464-18.213,7.382
		c-4.23,4.788-6.344,11.442-6.344,19.952c0,8.912,2.18,15.76,6.548,20.552C261.531,67.54,267.602,70,275.377,70
		c6.408,0,11.73-1.529,15.961-4.589c4.228-2.925,7.092-7.185,8.594-12.77h-10.23h-3.372c-0.081,0.215-0.146,0.442-0.217,0.675
		c-0.217,0.725-0.576,1.39-1.096,1.951c-0.224,0.24-0.464,0.465-0.724,0.674c-2.164,1.776-5.419,2.484-8.098,2.484
		c-3.549,0-6.21-1.062-7.98-3.191c-1.912-1.995-2.936-5.053-3.067-9.18h35.399c0.132-0.263,0.205-0.728,0.205-1.394
		c0-0.131,0-0.4,0-0.801c0-0.395,0-0.863,0-1.396C300.752,33.688,298.565,26.836,294.203,21.913z M265.148,37.078
		c0.132-3.456,1.155-6.115,3.067-7.981c1.909-1.861,4.363-2.793,7.367-2.793c3.274,0,5.797,0.932,7.573,2.793
		c1.634,1.73,2.59,4.39,2.86,7.981H265.148z"/>
	<path fill="#0AB042" d="M128.797,14.732L128.696,0h-6.649h-7.367v60.158c0,6.276,2.625,9.619,7.879,10.027
		c5.251,0.408,10.128,0.477,14.63,0.205V59.75h-4.298c-2.729,0-4.093-1.157-4.093-3.479V26.122h8.391v-7.093v-2.865v-0.205v-1.227
		H128.797z"/>
	<path fill="#0074CE" d="M40.312,14.986h-6.875c0.021,0.276,0.041,0.557,0.041,0.84v30.027c0,5.632-4.362,10.2-9.741,10.2
		s-9.741-4.568-9.741-10.2V15.826c0-0.283,0.019-0.563,0.041-0.84H0v18.183v13.484v0.931c0,12.104,9.813,21.917,21.915,21.917h3.642
		c12.104,0,21.917-9.812,21.917-21.917v-0.931v-5.278v-8.206V14.986H40.312z"/>
	<rect x="145.038" fill="#0AB042" width="14.01" height="11.005"/>
	<path fill="#0074CE" d="M106.194,38.767c-0.221-2.859-0.728-5.515-1.508-7.975l5.094-1.948L91.509,16.354l-5.718,21.669
		l5.637-2.156c0.513,2.001,0.775,4.297,0.775,6.897c0,4.808-1.022,8.61-3.068,11.415c-2.047,2.803-4.844,4.204-8.39,4.204
		c-3.821,0-6.753-1.401-8.8-4.204c-2.045-2.535-3.068-6.34-3.068-11.415c0-5.472,0.952-9.476,2.865-12.015
		c2.046-2.803,4.911-4.204,8.594-4.204c1.217,0,2.333,0.159,3.369,0.447l3.021-11.756c-1.729-0.327-3.451-0.505-5.162-0.505
		c-6.548,0-12.62,1.703-18.212,5.105c-5.595,3.404-8.388,9.781-8.388,19.122v37.746V88.82h6.956h6.968V76.706h-0.01V62.188
		c1.637,2.803,3.816,4.874,6.547,6.207c2.592,1.202,5.593,1.802,9.004,1.802c6.41,0,11.664-2.535,15.756-7.61
		c3.525-4.482,5.532-10.154,6.021-17.02c0.046-0.635,0.076-1.283,0.096-1.939c0.014-0.483,0.017-2.214,0.009-2.582
		C106.292,40.272,106.251,39.514,106.194,38.767z"/>
</g>
</svg>
